<svg id="Ebene_1" data-name="Ebene 1" xmlns="http://www.w3.org/2000/svg" viewBox="0 0 2261.5597 1348.4001"><title>partner</title><path d="M1959.3,100.5c14.6,20.3,25.3,47.2,17.4,71.2-36.9,29.3-83.5,36.5-130.7,42.1-29.2-10.6-70.7,6.7-91.4-25.8-28.1-37.6,10.1-71.2,21.9-103.8,9-37.7,48.8-5.1,69.6-23.1C1888.1,64,1933.7,64.6,1959.3,100.5ZM534.7,70.8c11.8,21.4,45.4,42.2,23,69.2C528,190.4,482,206,430.9,211.1c-27.6-4.4-48.8-12.9-74.1-23-10.6-1.5-14.6-12.7-16.3-21.3-3.9-14,6.8-21.8,9.6-32.6,1.7-16.9-5.1-37,9.5-48.2-1.6-9.6,4.5-19.1,13.4-20.2,54,1.7,109.6-4.6,161.7,5Z" transform="translate(-157.2622 -61.1)" fill="#fff" fill-rule="evenodd"/><path d="M1221.7,974.8c-17.3,1.1-10.7-22-16.3-32.5,3.4-9,10.7-16.8,14.6-24.1-.5-8.5,8.4-3.9,12.4-6.7-1.1-2.4-4-1.2-5.6-1.8-15.8,3.9-22.4-5.1-33.7-10.6-5.1-13.5-24.1-6.8-33.7-16.3,16.9-46.1,8.5-102.2,6.8-150.4-2.3-114.5-16.9-234-49.4-341.2l-20.2-24.1c-3.4,18.6-11.8-6.7-20.3,1.8-12.3-15.3-24.1,3.8-35.4,7.7C970.2,486.5,913.6,602.8,840.6,712.3c-19.6,15-25.8,67.1-60.6,44.1-9.6-17.3-23.5-5-36.5-16.2-17.4,13-36.8,24.6-57.6,24.2l-16.2,36.5c11.8,16.3,13.4,36.4,25.2,52.7,10.8,8.9,24.2,14.1,32.6,25.3-24.1,45.3-41,94.1-56.6,143-6.8,15.2-18.6,29.2-23.1,45.4l25.9-13.3c10.6,7.4-2.8,14.5,1.1,24.1l11.1-1.2c19.7,9.1-3.4,26.6,0,39.4,3.4,1.6,3.9-3.3,6.8-2.8v16.2c0-3.4,5-4.4,3.9-8.4,5-10.1,11.8-24.2,20.2-29.8,0,13.6-11.2,24.8-10.7,35.4l56.1-83.5c7.9-2.2,7.9,4,15.2,5.6l31.9-43.2c10.1-3.4,22.5-11.7,32.6-2.8,12.9-17.5,28.1-33.7,40.4-51,40.5,14.5,84.8,18.4,125.2,33.5,10.7,62.9,26.3,124,43.1,184.8,11.8,31.4,9,68.9,23,99.2v-4.9c-.5-2.4,0-4.6,2.8-4.6,3.5-15.7-1.7-35.4,4-51.1,12.3,10.2,8.9,28.7,13.4,40.6,5.1-20.3,1.8-45.6,2.9-65.8l2.2-4.6c10.1,6.8,2.8,23.7,6.7,33.7,3.9-16.8-2.2-38.1,5.6-53.8,7.3,7.7,2.8,22.5,4,31.4l15.1-4.6c20.3-52.2,10.7-121.7,13.5-181.8l3.8-5C1172.8,1005.7,1204.8,995.6,1221.7,974.8ZM1012.8,833.4c-19.1-1.1-37.6-3.5-53.9-11.3,13.5-38.1,32.6-80.3,51.1-119.5C1022.4,744.7,1014.5,787.4,1012.8,833.4Z" transform="translate(-157.2622 -61.1)" fill="#fff"/><path d="M436.4,268.9c-21.4,8.4-40.4,23.7-51.7,44.3-40.4,87-80.2,171.1-119.5,258.7L185.6,844c-26.3,96-33.1,207-25.3,310.9,6.8-2.7,2.4-16.2,13.6-18.5.6.5,1.7,1.3,1.1,2.3l6.8-5.1c4.5-11.8-2.2-8.4-2.8-17.4.5-6.2,8.4-4.5,10.6-4.5l-1.1,44.9c2.2-7.8,6.2-14.6,6.8-23,18.5-41,27.4-86.4,53.9-124,17.3-1.2,13.4-20.3,21.2-29.8,0,10.8-3.3,25.8-3.9,35.3,5-20.6,19.6-34.7,33.7-50l5.6,1.3,17.4-63.3c58.9-111.7,93.7-234.2,147-348.7,21.9-54.3,44.4-111,45.4-172.2C513.9,330.7,484.3,285.7,436.4,268.9Z" transform="translate(-157.2622 -61.1)" fill="#fff"/><path d="M1524.5,383.4c-5-12.5-14-7.4-23-12.5-34.7-21.9-21.8,26.5-47.1,33.7-35.9,79.7-77.4,157.1-111.7,237.3-44.9,139.8-108.4,274.5-126.8,422.5,22.5-15.1,46-25.3,70.2-37.2l83.6-161.9c11.2-18.4,16.9-43.1,38.7-53.8l80.8-184.6c18.5-48.9,44.8-103.4,24.7-159.9C1513.3,437.2,1536.8,411.4,1524.5,383.4Z" transform="translate(-157.2622 -61.1)" fill="#fff"/><path d="M2413.4,1030.8c-2.2-49.9-39.3-89.6-83.6-108.8-7.8-6.6-22.4,2.8-27-10.6-41.5-8-80.8-22-122.3-29.8-15.1-148.2-19.6-302.4-32.5-450l-17.4-22.5c-17.4-6.7-14.1-27.9-29.8005-36.4-17.9,16.2-44.2,21.2-56.6,43-75.3,132.5-159.4,262.1-242.4,390.6-23.7,3.2-44.4,16.7-61.8,31.8-2.3,23.7-14.1,60.2,0,83.8-12.4,41-33.6,78-63.4,111.6,4.5-1.6,10.7-6.1,16.3-2.8.5,12.9-12.9,19.6-10.7,32.6,5.1,15.6,15.7-1.2,24.2-1.2,1.1,2.1,5,3.4,3.9,6.7-1.7,11.8-15.1,33.6,1.1,37.5,5.1,12.5-7.8,20.8-6.6,33.8,10.6-9.1,24.1-29.7,40.3-21.9l94.3-127.9c25.3,7.8,51.6,21.3,75.7,35.4,34.8,8.9,70.8,13.4,103.9,27-.6,83.4,39.8,150.7,53.9,228.8l-2.8,6.8,5-2.9a81.7955,81.7955,0,0,1,8.4,43.2c11.3,14.1,0,42.1,9.6,57.9,1.7-2.9,1.7-7.4,5-9.6,5.6,9,2.8,22.1,5.6,32.6h1.1c2.4-14.1-3.9-27.5,0-39.2l5.6,5.6,1.2-1.8c-2.3-9.4-1.2-15.7-1.2-26.8a4.2042,4.2042,0,0,1,4-3.9c.5-2.8-1.1-6.7,1.1-9.5,11.9,5.6,0,21.8,5.6,27l3.9-5.2c4.1,12.3,3.5,21.9,5.7,34.8h2.8c3.3-17.3-7.8-35.4,3.9-49.9,5,1.7.6,8.4,3.9,9.5,11.2-32.6,11.7-69.2,14.6-105,10.7-14.1,2.8-31,6.7-47.2,11.9,15.8,1.2,29.3,4.6,47.2l1.1-12.3c7.3-9.1,8.4-23,9.5-33.7,3.4,5.6,1.8,13.4,4,19.1.5-7.9,1.6-15.6,6.6-21.3,1.8.7,1.3,2.3,1.3,4h2.7c-6.8-34.3-9.6-75.2-7.8-107.8,53.7,13.5,114.4,35.3,169.3,23.1l1.7-4.5-13.5-5.2c10.7-15.5,34.2-13.9,52.3-17.3,13.4-3.4,11.7-19.6,20.1-25.8C2422.4,1054.4,2417.9,1040.4,2413.4,1030.8ZM1971.8,833.5c0,8.4,10.5,0,11.7,6.6-5,2.2-11.3-5-17.4-1.8.6-7.7-7.3-16.7,1.1-22.9,13.5-25.8,21.3-55.5,40.4-78l6.8,100.9C1999.2,839,1985.2,832.7,1971.8,833.5Z" transform="translate(-157.2622 -61.1)" fill="#fff"/><path d="M1850.6,410.2c-4.5-44.9,13.4-103.1-31.4-127.9l-7.8,9.5c-14.6-12.9-27,14.1-43.2,14.7-38.7,69.5-58.9,147-91.5,219.3-25.8,73.5-73.5,137.5-83.5,217.1-14.6,78.6-43.8,156.6-32,240.8,5,1.2,8.3-2.8,11.8-6.8,18.4,10.8,26.3-11.8,39.2-18.4,6.7-4.6,16.8-2.8,23,2.8,13.4-26.4,32-50.5,48.2-75.7C1759.7,735.8,1852.3,589.3,1850.6,410.2Z" transform="translate(-157.2622 -61.1)" fill="#fff"/><path d="M1512.3,985.3c15,4.6,24.1,20.8,33.6,32.6-12.8,8.9-7.3,25.8-20.2,34.9,16.8,7.7-9.6,22.4,5.6,29.7-5,7.5,3.4,13,2.8,20.1l-59.4,36.6c-89.8-2.4-169.6,26.2-258.7,29.1-19.7-2-24.2-24.1-43.3-28,2.4-14-10.1-29.7,0-39.3,18,1.6,3.4-23.6,21.9-20.3,39.3-33.7,87.5-46.1,127.9-77.9,55.6-15.9,122.9-38.2,180.2-17.5l9.6,0Z" transform="translate(-157.2622 -61.1)" fill="#fff" fill-rule="evenodd"/><path d="M708.3,369.9c-43.2-15.7-96.1-12.3-138.8-25.9-24.1-16.8-26.4-45.9-24.1-75.1-3.9-3-7.2-7.8-3.9-12.4,8.4-4.8,15.1,3.5,24.1,2.9,2.8-2.9,1.1-7.7-1.1-10.5,6.2,4.3,2.2-2.4,5-4,38.1,2.8,65.7-25.4,99.9-27,93.7-25.8,199.3-10.7,296.3-28.6,31.4-.6,70.6-1.7,94.3,21.8l13.4,3.9c-.6,12.4-25.8,18.5-16.2,34.8l-16.4,29.8,8.5,3.9c-6.7,5.1-16.8,1.7-21.8,9.5l1.7,4c-4.5,7.2-15.2,2.3-16.3,11.2,2.3,7.3,11.3,2.3,14.6,4-17.4,6.7-37.6,12.9-54.9,23-57.3,7.2-110.6,22.5-168.4,28l-95.9,6.7Z" transform="translate(-157.2622 -61.1)" fill="#fff" fill-rule="evenodd"/><path d="M804.1,363.1c-10.6,79.7-34.2,153.2-59.5,226.2,2.8,31.9-26.4,56.2-25.2,87.6-11.2,29.1-26.9,56.5-33.7,87.5l-16.2,36.5c-18.9,27.5-32.6,57.2-44.3,87.5-22.5,12.9-40.4,40.5-36.5,70.2-1.1,3.8-3.9,7.3-2.8,11.7,7.3,1.7,3.9,12,2.8,16.3-8.5,9.6-19.1,16.7-24.1,28.5l-5.6-4.3c-1.7,1.6-2.8,4-5.7,2.8l-3.9-4c-21.3,11.8-18,35.8-30.9,52.7l-3.8-4.6c-25.8,11.3-27.5,40.5-35.3,63.5-1.8-18.6,14.5-40.4,6.7-58.9-3.9,24.7-18,45.5-24.1,69.7-2.3-20.3,8.9-34.3,9.5-54,.6-50,3.4-105.5,10.7-156,21.3-71.8,42.6-144.3,70-214.4L689.7,414.1c8.5-13.5,13.5-29.1,18.6-44.3l95.8-6.7Z" transform="translate(-157.2622 -61.1)" fill="#fff" fill-rule="evenodd"/><path d="M1159.6,882.8c9.6,9.5,28.2,2.8,33.3,16.3,11.3,5.5,17.9,14.5,33.7,10.6,1.6.6,4.5-.6,5.6,1.8-4,2.8-12.9-1.8-12.4,6.7-3.9,7.3-11.2,15.1-14.6,24.1,5.6,10.5-1,33.6,16.3,32.5-16.9,20.8-48.9,30.9-74.1,24.2l-140.1-13.6c-40.4-15.1-84.7-19-125.2-33.5L727.3,879c-8.4-11.2-21.9-16.4-32.7-25.3-11.8-16.3-13.4-36.4-25.2-52.7l16.5-36.5c20.8.4,40.2-11.2,57.6-24.2,13,11.2,26.9-1.1,36.5,16.2l379.6,126.3Zm1019-.2c41.5,7.6,82.6,20.9,124.1,28.9,4.6,13.4,19.2,4,27,10.6,44.3,19.2,81.4,58.9,83.6,108.8,4.5,9.6,9,23.6,1.1,32.6-8.4,6.2-6.7,22.4-20.1,25.8-18.1,3.4-41.6,1.8-52.3,17.3l13.5,5.2-1.7,4.5c-54.9,12.2-115.6-9.6-169.3-23.1L2018.9,1053c-33-13.6-69.1-18.1-103.9-27-24.1-14.1-50.4-27.6-75.7-35.4l-99.2-68.5c-13.9-23.6-2.3-60.1-.1-83.8,17.4-15.1,38.1-28.6,61.8-31.8L1985,844.6l1.4-9.8-14.1-1.4,42.1,5.7s18.3,12.6,36.5,16.7q63.5994,14.55,127.7,26.8Z" transform="translate(-157.2622 -61.1)" fill="#fff" fill-rule="evenodd"/></svg>